<svg id="visual" viewBox="0 0 500 500" width="500" height="500" xmlns="http://www.w3.org/2000/svg" xmlns:xlink="http://www.w3.org/1999/xlink" version="1.1"><g transform="translate(228.17353594252566 214.47984431155425)"><path d="M105.6 -165.6C142.6 -161.6 182.1 -144.8 206 -115.1C229.8 -85.3 237.9 -42.7 238.9 0.6C239.9 43.8 233.8 87.7 218.9 132.8C203.9 177.9 180.1 224.3 142.1 235C104.2 245.8 52.1 220.9 9.1 205.1C-33.8 189.3 -67.7 182.5 -101.7 169.5C-135.8 156.5 -170.1 137.3 -185.7 108C-201.3 78.7 -198.1 39.3 -175.3 13.2C-152.6 -13 -110.1 -26 -89.6 -46.8C-69.1 -67.6 -70.6 -96.2 -59.3 -115C-48 -133.8 -24 -142.9 5.2 -151.9C34.3 -160.8 68.7 -169.6 105.6 -165.6" fill="#4b53da"></path></g></svg>